<svg xmlns="http://www.w3.org/2000/svg" style="display:none">
  <!-- Existing symbols kept for compatibility -->
  <symbol id="icon-logo" viewBox="0 0 32 32">
    <path d="M16 2C8.268 2 2 8.268 2 16s6.268 14 14 14 14-6.268 14-14S23.732 2 16 2zm0 2c6.627 0 12 5.373 12 12s-5.373 12-12 12S4 22.627 4 16 9.373 4 16 4z"/>
    <path d="M10 16h12" stroke="currentColor" stroke-width="2" fill="none" stroke-linecap="round"/>
    <path d="M16 10v12" stroke="currentColor" stroke-width="2" fill="none" stroke-linecap="round"/>
  </symbol>

  <symbol id="icon-javascript" viewBox="0 0 32 32">
    <path d="M6 6h20v20H6z" fill="currentColor" opacity=".12"/>
    <path d="M6 6h20v20H6z" fill="none" stroke="currentColor" stroke-width="2"/>
    <path d="M14 22c0 2-1 3-3 3-1.2 0-2.2-.5-2.8-1.4l1.7-1.1c.3.5.6.8 1.1.8.5 0 .8-.2.8-1V14h2.2v8z" fill="currentColor"/>
    <path d="M23.8 22.3c0 2-1.2 2.9-3 2.9-1.6 0-2.5-.8-3-1.8l1.8-1c.3.6.6 1 1.2 1 .6 0 .9-.2.9-.8 0-.6-.5-.8-1.3-1.2l-.4-.2c-1.2-.5-2-1.2-2-2.6 0-1.3 1-2.3 2.6-2.3 1.1 0 2 .4 2.6 1.5l-1.7 1.1c-.2-.4-.5-.7-.9-.7-.4 0-.7.3-.7.7 0 .5.3.7 1 .9l.4.2c1.4.6 2.2 1.2 2.2 2.8z" fill="currentColor"/>
  </symbol>

  <!-- NEW: UI icons -->
  <symbol id="icon-search" viewBox="0 0 24 24">
    <circle cx="11" cy="11" r="7" fill="none" stroke="currentColor" stroke-width="2"/>
    <path d="M20 20l-3.2-3.2" fill="none" stroke="currentColor" stroke-width="2" stroke-linecap="round"/>
  </symbol>

  <symbol id="icon-close" viewBox="0 0 24 24">
    <path d="M6 6l12 12M18 6L6 18" fill="none" stroke="currentColor" stroke-width="2" stroke-linecap="round"/>
  </symbol>

  <symbol id="icon-burger" viewBox="0 0 24 24">
    <path d="M4 6h16M4 12h16M4 18h16" fill="none" stroke="currentColor" stroke-width="2" stroke-linecap="round"/>
  </symbol>

  <symbol id="icon-heart" viewBox="0 0 24 24">
    <path d="M20.5 8.5c0 6-8.5 11-8.5 11S3.5 14.5 3.5 8.5c0-2.5 2-4.5 4.5-4.5 1.8 0 3.3 1 4 2.3C12.7 5 14.2 4 16 4c2.5 0 4.5 2 4.5 4.5z"
      fill="none" stroke="currentColor" stroke-width="2" stroke-linejoin="round"/>
  </symbol>

  <symbol id="icon-trash" viewBox="0 0 24 24">
    <path d="M6 7h12" fill="none" stroke="currentColor" stroke-width="2" stroke-linecap="round"/>
    <path d="M9 7V5h6v2" fill="none" stroke="currentColor" stroke-width="2" stroke-linejoin="round"/>
    <path d="M7 7l1 14h8l1-14" fill="none" stroke="currentColor" stroke-width="2" stroke-linejoin="round"/>
    <path d="M10 11v6M14 11v6" fill="none" stroke="currentColor" stroke-width="2" stroke-linecap="round"/>
  </symbol>

  <symbol id="icon-arrow-up" viewBox="0 0 24 24">
    <path d="M12 19V5" fill="none" stroke="currentColor" stroke-width="2" stroke-linecap="round"/>
    <path d="M6 11l6-6 6 6" fill="none" stroke="currentColor" stroke-width="2" stroke-linecap="round" stroke-linejoin="round"/>
  </symbol>

  <symbol id="icon-quote" viewBox="0 0 24 24">
    <path d="M10 7H6a3 3 0 0 0-3 3v7h7v-7H7V10a1 1 0 0 1 1-1h2V7zm11 0h-4a3 3 0 0 0-3 3v7h7v-7h-3V10a1 1 0 0 1 1-1h2V7z"
      fill="currentColor"/>
  </symbol>

  <symbol id="icon-star-filled" viewBox="0 0 24 24">
    <path d="M12 2.6l2.9 6 6.6.9-4.8 4.6 1.2 6.5L12 17.8 6.1 20.6l1.2-6.5L2.5 9.5l6.6-.9L12 2.6z" fill="currentColor"/>
  </symbol>

  <symbol id="icon-star-empty" viewBox="0 0 24 24">
    <path d="M12 3.7l2.5 5.2 5.7.8-4.1 3.9 1 5.6L12 16.8 6.9 19.2l1-5.6-4.1-3.9 5.7-.8L12 3.7z"
      fill="none" stroke="currentColor" stroke-width="2" stroke-linejoin="round"/>
  </symbol>

  <symbol id="icon-chev-left" viewBox="0 0 24 24">
    <path d="M15 6l-6 6 6 6" fill="none" stroke="currentColor" stroke-width="2" stroke-linecap="round" stroke-linejoin="round"/>
  </symbol>

  <symbol id="icon-chev-right" viewBox="0 0 24 24">
    <path d="M9 6l6 6-6 6" fill="none" stroke="currentColor" stroke-width="2" stroke-linecap="round" stroke-linejoin="round"/>
  </symbol>

  <symbol id="icon-arrow-right" viewBox="0 0 24 24">
    <path d="M5 12h14" fill="none" stroke="currentColor" stroke-width="2" stroke-linecap="round"/>
    <path d="M13 6l6 6-6 6" fill="none" stroke="currentColor" stroke-width="2" stroke-linecap="round" stroke-linejoin="round"/>
  </symbol>
</svg>
