<svg xmlns="http://www.w3.org/2000/svg" style="display:none">
  <!-- menu / close / search -->
  <symbol id="icon-burger" viewBox="0 0 24 24">
    <path d="M4 6h16M4 12h16M4 18h16" fill="none" stroke="currentColor" stroke-width="2" stroke-linecap="round"/>
  </symbol>

  <symbol id="icon-close" viewBox="0 0 24 24">
    <path d="M6 6l12 12M18 6L6 18" fill="none" stroke="currentColor" stroke-width="2" stroke-linecap="round"/>
  </symbol>

  <symbol id="icon-search" viewBox="0 0 24 24">
    <path d="M10.5 18a7.5 7.5 0 1 1 0-15 7.5 7.5 0 0 1 0 15z" fill="none" stroke="currentColor" stroke-width="2"/>
    <path d="M16.5 16.5 21 21" fill="none" stroke="currentColor" stroke-width="2" stroke-linecap="round"/>
  </symbol>

  <!-- arrows -->
  <symbol id="icon-arrow-right" viewBox="0 0 24 24">
    <path d="M5 12h12" fill="none" stroke="currentColor" stroke-width="2" stroke-linecap="round"/>
    <path d="M13 6l6 6-6 6" fill="none" stroke="currentColor" stroke-width="2" stroke-linecap="round" stroke-linejoin="round"/>
  </symbol>

  <symbol id="icon-arrow-up" viewBox="0 0 24 24">
    <path d="M12 19V6" fill="none" stroke="currentColor" stroke-width="2" stroke-linecap="round"/>
    <path d="M6 12l6-6 6 6" fill="none" stroke="currentColor" stroke-width="2" stroke-linecap="round" stroke-linejoin="round"/>
  </symbol>

  <symbol id="icon-chevron-left" viewBox="0 0 24 24">
    <path d="M15 6l-6 6 6 6" fill="none" stroke="currentColor" stroke-width="2" stroke-linecap="round" stroke-linejoin="round"/>
  </symbol>

  <symbol id="icon-chevron-right" viewBox="0 0 24 24">
    <path d="M9 6l6 6-6 6" fill="none" stroke="currentColor" stroke-width="2" stroke-linecap="round" stroke-linejoin="round"/>
  </symbol>

  <!-- favorites / trash -->
  <symbol id="icon-heart" viewBox="0 0 24 24">
    <path d="M12 21s-7-4.6-9.2-9.2C1.2 8.7 3 6 6 6c1.7 0 3.1.9 4 2 0.9-1.1 2.3-2 4-2 3 0 4.8 2.7 3.2 5.8C19 16.4 12 21 12 21z"
      fill="none" stroke="currentColor" stroke-width="2" stroke-linejoin="round"/>
  </symbol>

  <symbol id="icon-heart-filled" viewBox="0 0 24 24">
    <path d="M12 21s-7-4.6-9.2-9.2C1.2 8.7 3 6 6 6c1.7 0 3.1.9 4 2 0.9-1.1 2.3-2 4-2 3 0 4.8 2.7 3.2 5.8C19 16.4 12 21 12 21z"
      fill="currentColor"/>
  </symbol>

  <symbol id="icon-trash" viewBox="0 0 24 24">
    <path d="M9 3h6M4 6h16" fill="none" stroke="currentColor" stroke-width="2" stroke-linecap="round"/>
    <path d="M7 6l1 15h8l1-15" fill="none" stroke="currentColor" stroke-width="2" stroke-linejoin="round"/>
    <path d="M10 11v6M14 11v6" fill="none" stroke="currentColor" stroke-width="2" stroke-linecap="round"/>
  </symbol>

  <!-- quote / stars -->
  <symbol id="icon-quote" viewBox="0 0 24 24">
    <path d="M8 17H5a3 3 0 0 1 0-6h3V7H6a4 4 0 0 0 0 8h2v2z" fill="currentColor"/>
    <path d="M19 17h-3v-2h2a3 3 0 0 0 0-6h-2V7h3a4 4 0 0 1 0 8h0v2z" fill="currentColor"/>
  </symbol>

  <symbol id="icon-star" viewBox="0 0 24 24">
    <path d="M12 17.3l-5.4 3 1-6.1L3 9.9l6.2-.9L12 3.4l2.8 5.6 6.2.9-4.6 4.3 1 6.1z"
      fill="none" stroke="currentColor" stroke-width="2" stroke-linejoin="round"/>
  </symbol>

  <symbol id="icon-star-filled" viewBox="0 0 24 24">
    <path d="M12 17.3l-5.4 3 1-6.1L3 9.9l6.2-.9L12 3.4l2.8 5.6 6.2.9-4.6 4.3 1 6.1z"
      fill="currentColor"/>
  </symbol>
</svg>
